<?xml version="1.0" standalone="no"?>
<!DOCTYPE svg PUBLIC "-//W3C//DTD SVG 20010904//EN"
 "http://www.w3.org/TR/2001/REC-SVG-20010904/DTD/svg10.dtd">
<svg version="1.0" xmlns="http://www.w3.org/2000/svg"
 width="2953.000000pt" height="2362.000000pt" viewBox="0 0 2953.000000 2362.000000"
 preserveAspectRatio="xMidYMid meet">

<g transform="translate(0.000000,2362.000000) scale(0.100000,-0.100000)"
fill="#000000" stroke="none">
<path d="M0 11810 l0 -11810 1780 0 1779 0 20 68 c11 37 25 87 31 112 22 85
84 240 96 240 11 0 21 21 42 87 6 17 40 76 75 130 68 102 137 231 174 321 14
34 26 51 33 47 13 -8 7 125 -12 258 -6 42 -7 96 -3 120 4 23 9 115 11 204 6
238 36 413 86 508 15 28 29 57 32 66 2 9 18 19 34 22 21 4 51 30 98 84 38 43
108 116 155 163 47 47 101 106 119 133 18 26 37 47 41 47 12 0 99 119 126 170
47 93 26 126 -23 35 -18 -32 -40 -62 -49 -68 -32 -17 -13 67 22 101 16 15 56
61 90 102 92 114 93 115 94 39 1 -35 4 -50 6 -34 6 52 45 218 59 258 8 20 14
46 14 58 0 11 11 41 24 68 14 26 32 88 41 137 10 49 23 100 30 114 7 14 26 64
41 110 15 47 49 128 75 180 27 52 49 100 49 107 0 7 22 42 50 78 27 36 55 75
61 87 6 11 50 57 96 102 74 70 91 93 129 173 24 51 63 114 86 142 105 122 123
148 175 249 31 59 73 129 94 156 22 27 39 55 39 62 0 14 -40 20 -40 7 -1 -5
-12 -21 -27 -38 l-25 -30 27 50 c65 118 78 141 95 159 18 18 18 16 13 -61 -4
-57 -2 -82 7 -88 33 -20 51 68 55 260 2 159 10 197 55 282 34 64 68 119 217
350 24 36 43 72 43 80 0 14 27 59 96 162 16 24 40 61 54 81 14 21 46 69 71
106 25 38 79 104 120 147 41 42 99 107 129 143 63 76 80 87 116 78 24 -6 25
-10 20 -48 -3 -22 -10 -167 -16 -321 -5 -154 -15 -374 -20 -490 -14 -289 -13
-416 6 -521 17 -102 66 -299 59 -239 -45 358 -44 476 6 1345 6 96 11 193 11
215 8 259 24 385 48 385 3 0 14 23 24 50 10 28 24 50 32 50 8 0 14 9 14 20 0
11 4 20 9 20 5 0 25 17 45 38 20 20 53 46 73 57 21 10 49 27 63 36 14 9 61 26
105 39 44 12 98 28 120 36 23 8 58 14 78 14 24 0 52 9 75 25 20 14 42 25 48
25 7 0 34 17 61 39 27 21 69 47 94 58 44 20 117 76 191 147 20 20 41 36 47 36
6 0 11 3 11 8 0 4 22 19 48 34 27 15 57 39 68 53 10 14 35 36 54 48 19 12 55
36 79 55 24 18 66 44 93 58 27 14 78 45 114 69 36 25 68 45 71 45 9 0 104 71
164 122 30 26 65 48 77 48 17 0 22 6 22 25 0 33 43 73 84 79 17 3 67 10 111
16 44 6 103 15 130 20 28 5 74 9 103 9 28 1 52 5 52 9 0 13 47 32 79 32 15 0
36 7 47 15 11 8 42 15 74 15 30 1 73 8 95 16 22 9 58 20 80 25 22 6 56 21 75
34 21 14 64 28 108 35 50 8 82 20 101 36 16 13 35 24 42 24 8 0 28 9 44 20 17
11 44 20 60 20 17 0 39 6 50 13 26 18 177 63 236 71 25 4 95 27 155 52 103 43
160 58 263 71 31 4 45 10 48 24 6 21 36 25 75 10 13 -5 43 -6 65 -2 l41 8 43
-76 c126 -225 281 -380 506 -506 45 -25 94 -60 108 -76 17 -21 25 -25 25 -15
0 20 12 20 112 -3 90 -21 172 -28 200 -16 12 4 26 -2 43 -19 22 -22 35 -26 81
-26 30 0 74 -5 98 -11 41 -10 42 -12 54 -67 7 -31 19 -136 27 -232 20 -223 37
-330 76 -485 6 -22 17 -66 25 -98 19 -75 193 -425 269 -542 33 -49 91 -148
131 -219 39 -72 77 -132 83 -134 18 -6 13 43 -13 111 -34 90 -58 136 -143 265
-41 63 -85 137 -98 166 -13 28 -31 62 -39 76 -8 14 -38 72 -67 130 -53 107
-71 164 -116 370 -28 130 -27 124 -48 320 -9 80 -25 179 -36 222 -25 98 -24
108 4 108 38 0 67 12 67 27 0 10 4 11 19 3 29 -15 294 -16 400 0 77 11 105 11
157 0 36 -7 81 -9 102 -5 20 4 144 7 274 7 l238 -1 147 50 c146 49 198 58 232
40 10 -6 39 -5 77 3 70 15 84 22 84 42 0 8 3 15 8 15 4 1 22 3 41 5 19 2 45
11 58 19 13 9 63 20 111 25 155 16 361 89 441 156 14 12 58 37 96 57 39 19 83
49 99 66 16 16 43 33 60 37 59 12 106 48 193 147 48 54 107 115 132 135 25 20
98 88 161 152 63 63 139 135 167 158 34 28 56 54 61 75 5 18 8 33 7 35 -1 1
-21 -5 -45 -13 -55 -19 -125 -73 -216 -167 -39 -40 -124 -127 -189 -193 -65
-66 -136 -144 -158 -173 -37 -49 -45 -54 -123 -78 -57 -17 -89 -32 -101 -49
-10 -13 -50 -41 -89 -62 -38 -21 -105 -59 -147 -84 -42 -25 -109 -56 -149 -68
-40 -12 -88 -26 -106 -32 -18 -6 -56 -12 -85 -15 -78 -6 -104 -13 -150 -40
-23 -13 -49 -24 -58 -24 -16 0 -45 -13 -79 -35 -19 -12 -43 -16 -115 -21 -99
-5 -256 -33 -320 -55 -46 -16 -101 -24 -230 -31 -216 -12 -399 -13 -449 -3
-35 7 -193 -6 -276 -23 -38 -8 -198 0 -355 18 -55 7 -147 13 -203 15 -65 3
-109 9 -119 17 -10 8 -49 13 -107 14 -125 1 -195 20 -301 78 -331 182 -494
415 -721 1026 -7 19 -29 68 -49 108 -20 41 -61 135 -91 210 -31 75 -64 152
-76 170 -11 18 -24 48 -29 65 -4 18 -17 59 -28 92 -11 33 -27 87 -36 120 -35
122 -94 283 -129 350 -9 17 -16 42 -16 57 0 24 -15 102 -42 213 -5 22 -17 83
-27 135 -18 90 -53 229 -71 274 -24 62 -51 160 -63 231 -8 44 -20 92 -27 105
-7 13 -21 56 -31 95 -11 38 -26 95 -34 125 -35 122 -124 490 -138 570 -20 107
-36 284 -44 465 -4 105 -2 164 10 235 9 52 19 133 22 180 4 47 15 126 25 175
10 50 23 127 29 172 7 56 20 101 41 142 21 42 30 75 30 109 0 26 5 53 11 59 8
8 12 62 12 155 1 156 -17 276 -53 368 -12 30 -40 100 -62 155 -73 182 -69 163
-64 338 4 169 10 204 30 188 6 -5 47 -14 91 -20 44 -6 100 -16 125 -22 25 -6
71 -12 102 -14 32 -1 71 -8 87 -15 17 -6 36 -10 43 -7 7 2 37 -6 66 -19 83
-37 202 -67 242 -61 26 3 49 -2 80 -19 39 -21 58 -24 156 -24 94 0 115 3 135
18 28 24 20 49 -21 63 -16 6 -30 16 -31 22 -1 21 -112 106 -177 137 -42 20
-65 37 -72 55 -5 14 -16 25 -23 25 -17 0 -154 69 -195 99 -31 21 -106 46 -187
61 -22 4 -53 13 -70 19 -36 15 -223 44 -239 38 -7 -3 -37 1 -67 7 -67 15 -68
17 -40 211 12 79 24 185 28 237 4 68 11 96 22 105 13 9 16 36 17 155 0 96 5
164 16 208 9 36 22 103 28 150 6 46 16 93 23 105 10 19 73 304 102 460 7 39
17 81 22 95 9 21 28 114 46 220 12 73 86 288 130 377 27 57 47 110 43 118 -6
17 30 65 50 65 6 0 14 -9 17 -20 5 -19 38 -27 87 -21 8 1 56 6 105 12 148 19
229 12 275 -22 51 -37 113 -53 155 -39 25 8 45 8 75 0 22 -6 45 -8 51 -5 5 4
16 2 23 -4 7 -6 30 -11 52 -11 21 1 55 -1 74 -2 32 -3 37 1 77 62 24 36 43 73
43 83 0 25 24 21 59 -9 24 -20 39 -25 62 -22 17 3 48 -1 68 -8 61 -22 103 -17
180 22 99 51 194 61 268 27 56 -26 169 -40 193 -24 13 9 12 12 -5 25 -18 13
-17 14 22 9 31 -4 52 0 82 15 33 18 51 20 108 15 51 -4 77 -2 99 9 20 11 50
14 94 12 36 -2 106 -6 155 -8 50 -2 108 -7 130 -11 23 -4 60 -1 85 6 58 15
210 29 325 30 50 0 126 0 170 1 267 1 475 19 516 44 6 3 23 1 39 -6 24 -10 36
-8 75 9 33 15 85 23 192 31 112 9 159 17 204 35 41 16 69 22 98 18 30 -4 47 0
70 16 29 21 32 21 61 6 16 -8 30 -21 30 -28 0 -22 35 -83 73 -128 24 -27 37
-53 37 -71 0 -16 9 -46 19 -66 11 -21 22 -56 26 -77 4 -22 13 -49 20 -61 7
-11 11 -32 8 -47 -4 -20 4 -43 30 -85 44 -72 66 -138 77 -227 10 -86 15 -100
44 -113 17 -8 27 -7 36 1 10 10 11 0 6 -48 -5 -44 -3 -65 8 -80 8 -12 30 -66
49 -120 20 -55 44 -118 55 -140 11 -22 25 -67 30 -100 6 -33 16 -80 22 -105 7
-25 14 -63 16 -85 6 -71 12 -96 29 -121 9 -14 14 -33 11 -41 -4 -9 1 -27 10
-41 9 -14 16 -43 16 -66 -1 -22 6 -55 14 -73 9 -17 13 -41 9 -52 -4 -13 2 -27
18 -43 26 -24 47 -76 47 -113 0 -13 7 -28 16 -35 8 -8 14 -25 14 -39 -3 -44
-1 -49 28 -66 20 -12 32 -31 41 -64 28 -100 34 -113 55 -120 11 -5 24 -4 27 0
3 5 21 -2 40 -16 19 -14 55 -41 82 -60 58 -43 116 -48 75 -7 -9 9 -8 12 4 12
9 0 19 -8 22 -18 3 -9 31 -37 61 -61 30 -24 69 -62 86 -85 18 -23 48 -53 68
-67 36 -25 47 -44 114 -189 19 -41 49 -105 66 -141 17 -37 31 -70 31 -73 0 -4
20 -40 45 -80 25 -41 45 -80 45 -86 0 -6 7 -24 15 -41 9 -16 17 -45 18 -63 2
-18 12 -46 24 -62 29 -42 59 -130 67 -198 4 -32 18 -87 31 -121 14 -34 25 -69
25 -77 0 -24 11 -48 22 -48 5 0 7 17 4 38 -4 30 -3 29 5 -8 14 -56 40 -110 54
-110 6 0 47 13 91 29 59 22 91 28 121 24 49 -6 114 24 140 65 9 15 26 37 36
49 18 20 18 23 3 29 -17 7 -22 34 -6 34 6 0 10 11 10 25 0 28 -19 35 -21 8 -3
-38 -18 76 -18 141 -1 63 1 71 32 106 37 44 77 107 77 122 0 5 8 20 18 32 15
19 20 21 30 10 17 -18 56 -18 72 1 6 8 15 13 20 12 4 -1 21 10 37 24 17 15 42
26 60 27 40 1 103 28 103 44 0 7 9 2 19 -11 17 -22 21 -23 54 -12 20 7 39 17
42 22 4 5 20 9 38 9 l31 0 -74 -75 c-41 -41 -81 -75 -90 -76 -8 0 -10 -3 -4
-5 15 -6 -28 -95 -77 -160 -46 -63 -58 -101 -35 -110 20 -8 82 54 141 141 56
83 151 182 210 220 52 33 189 75 248 75 18 0 60 -7 92 -17 33 -9 71 -16 85
-17 14 0 34 -11 46 -23 12 -13 24 -20 27 -17 19 20 147 -165 147 -213 0 -10 7
-28 15 -40 24 -34 92 -329 100 -429 5 -69 3 -106 -10 -157 -9 -36 -15 -79 -13
-94 7 -56 40 77 48 192 l7 110 1 -90 c2 -76 -4 -114 -38 -245 -23 -85 -43
-156 -45 -159 -14 -13 -14 12 -1 44 18 42 20 55 8 55 -5 0 -17 -19 -26 -42
-10 -24 -26 -62 -37 -86 -10 -23 -19 -48 -19 -55 0 -7 -9 -29 -20 -50 -11 -20
-20 -53 -20 -72 0 -19 -6 -52 -14 -72 -8 -21 -17 -56 -20 -78 -3 -22 -24 -76
-46 -118 -22 -43 -40 -86 -40 -96 0 -35 -79 -229 -129 -316 -28 -48 -72 -112
-98 -142 -27 -30 -61 -76 -77 -101 -42 -69 -182 -226 -285 -321 -84 -77 -91
-81 -91 -56 0 39 -18 65 -44 65 -33 0 -41 -14 -56 -97 -7 -40 -16 -73 -19 -74
-56 -6 -79 -12 -110 -28 -52 -28 -98 -39 -165 -40 -32 0 -63 -4 -70 -9 -11 -9
-139 -62 -150 -62 -2 0 -2 31 1 68 5 56 3 71 -11 85 -41 40 -54 16 -70 -129
-8 -71 -22 -149 -30 -173 -9 -24 -16 -56 -16 -71 0 -16 -18 -61 -39 -102 -21
-40 -42 -91 -45 -113 -4 -22 -13 -56 -20 -75 -8 -19 -26 -75 -41 -125 -83
-273 -142 -440 -185 -525 -27 -52 -62 -122 -78 -155 -17 -33 -45 -100 -63
-150 -17 -49 -56 -130 -85 -179 -30 -49 -54 -95 -54 -101 0 -13 -45 -131 -61
-159 -6 -10 -22 -46 -34 -80 -13 -34 -47 -113 -76 -176 -37 -83 -54 -135 -60
-185 -4 -38 -7 -71 -4 -73 10 -11 46 23 68 66 28 53 128 279 145 327 6 17 31
77 56 134 25 57 46 109 46 115 0 6 14 38 31 71 37 72 119 272 119 290 0 7 14
39 31 71 17 33 47 88 66 124 33 61 121 304 164 450 10 36 28 92 38 125 10 33
31 101 47 150 15 50 45 120 66 157 21 36 38 78 38 93 0 14 7 39 15 55 8 16 19
46 23 67 6 26 13 37 23 34 31 -9 87 -3 119 14 23 12 35 14 38 7 2 -8 16 -5 40
7 20 10 52 22 70 26 32 7 33 6 23 -13 -6 -11 -15 -67 -21 -124 -5 -57 -16
-148 -24 -203 -9 -55 -16 -127 -16 -160 0 -59 -1 -61 -43 -95 -57 -45 -103
-106 -122 -160 -25 -70 -20 -205 11 -296 31 -94 95 -204 144 -248 31 -27 36
-38 32 -64 -7 -50 29 -384 54 -499 17 -81 40 -118 67 -108 19 8 22 42 7 96
-26 94 -74 479 -62 491 12 12 82 -1 82 -14 0 -5 10 -2 22 6 12 9 37 16 54 16
17 0 52 11 78 25 45 24 47 24 65 6 10 -10 23 -20 28 -22 5 -2 26 -35 45 -74
44 -87 126 -248 150 -295 23 -46 64 -205 77 -303 27 -193 -3 -538 -52 -607 -9
-13 -13 17 -15 142 -2 105 -8 170 -17 192 -8 18 -21 62 -29 98 -24 106 -94
283 -143 366 -56 95 -133 162 -187 162 -40 0 -47 -14 -16 -30 36 -19 105 -93
144 -152 43 -66 95 -191 124 -298 44 -162 52 -198 62 -295 5 -55 15 -132 22
-170 14 -89 -6 -207 -56 -327 -19 -46 -47 -117 -62 -158 -15 -41 -40 -94 -57
-118 -16 -24 -40 -70 -53 -103 -14 -33 -39 -81 -57 -107 -18 -26 -45 -67 -59
-92 -14 -25 -37 -54 -50 -66 -12 -11 -52 -56 -88 -99 -98 -119 -542 -575 -560
-575 -5 0 -40 -29 -77 -64 -49 -45 -97 -78 -173 -115 -206 -103 -245 -127
-345 -210 -33 -28 -84 -65 -112 -82 -29 -17 -67 -49 -84 -71 -18 -21 -70 -66
-118 -98 -107 -72 -149 -116 -196 -205 -46 -86 -108 -194 -150 -260 -34 -54
-95 -178 -95 -193 0 -6 -9 -29 -20 -53 -15 -34 -20 -66 -20 -144 0 -55 -5
-118 -10 -140 -5 -22 -10 -139 -10 -260 -1 -121 -6 -248 -12 -283 -11 -57 -10
-65 9 -90 30 -40 65 -36 80 8 7 19 12 52 12 72 1 20 5 59 10 85 6 26 12 129
15 228 3 99 11 218 17 265 6 47 8 101 5 121 -4 26 2 57 20 105 32 87 72 170
98 209 27 38 84 138 140 245 47 90 83 130 156 175 53 33 133 107 151 142 7 14
31 34 53 45 21 11 60 39 85 62 53 48 143 115 186 140 17 9 37 20 45 25 42 26
178 84 197 85 26 2 87 54 142 121 9 11 34 34 56 50 70 51 507 504 572 593 15
21 50 62 78 92 28 30 64 78 80 105 16 28 39 64 52 81 12 17 37 61 53 98 17 38
43 87 58 110 24 38 107 227 119 271 3 11 23 65 44 120 73 192 98 297 118 500
11 105 17 193 15 196 -2 4 -8 51 -14 105 -6 55 -13 116 -16 137 -6 37 -5 37
28 37 26 0 41 -8 64 -33 16 -18 41 -41 55 -52 14 -11 34 -33 44 -50 10 -16 37
-52 60 -80 38 -47 77 -105 101 -150 6 -11 37 -41 70 -68 32 -26 63 -56 68 -67
5 -11 16 -20 24 -20 9 0 32 -10 51 -23 20 -13 83 -54 141 -92 58 -38 123 -80
144 -94 22 -14 68 -51 102 -81 92 -81 115 -96 179 -125 32 -14 65 -31 72 -37
8 -6 54 -22 101 -34 48 -13 110 -32 137 -44 28 -12 99 -37 158 -57 102 -32
114 -39 181 -101 40 -37 110 -94 157 -127 46 -32 114 -87 151 -122 50 -46 77
-64 105 -68 21 -4 49 -10 63 -15 74 -24 120 -34 164 -36 38 -2 65 -13 125 -50
87 -54 135 -80 241 -129 41 -19 115 -64 165 -99 49 -35 119 -75 155 -88 36
-14 81 -30 100 -37 19 -7 71 -22 115 -32 92 -22 147 -44 190 -74 34 -24 88
-45 118 -45 20 0 185 -90 222 -120 11 -10 70 -41 130 -71 127 -61 275 -148
275 -161 0 -4 9 -8 21 -8 11 0 38 -15 60 -33 40 -35 211 -124 290 -152 26 -8
80 -36 120 -62 41 -25 90 -56 109 -68 83 -51 138 -82 180 -99 86 -35 274 -135
400 -213 30 -18 96 -54 147 -78 58 -29 99 -56 113 -75 20 -28 48 -47 223 -152
91 -55 215 -118 272 -138 233 -82 342 -139 434 -225 36 -33 78 -68 92 -77 16
-10 49 -60 85 -130 56 -109 113 -178 224 -274 29 -25 106 -127 152 -199 17
-27 39 -59 48 -70 10 -11 31 -45 47 -75 16 -30 50 -89 75 -130 54 -91 142
-270 158 -325 18 -59 35 -91 90 -175 60 -90 95 -155 104 -192 9 -37 83 -141
107 -150 10 -4 19 -14 19 -23 0 -8 4 -14 9 -13 4 2 52 -34 105 -79 53 -46 102
-83 108 -83 16 0 87 -87 163 -200 66 -97 79 -110 104 -103 21 5 95 -73 126
-133 11 -21 32 -57 47 -79 47 -72 86 -188 148 -435 17 -69 42 -149 56 -179 13
-29 24 -63 24 -75 0 -12 10 -33 22 -46 25 -26 77 -127 78 -150 0 -8 20 -56 45
-107 25 -50 45 -103 45 -116 0 -13 9 -50 21 -83 11 -32 22 -81 24 -109 1 -27
14 -93 29 -145 15 -56 28 -134 32 -190 10 -181 54 -431 118 -670 47 -174 90
-391 121 -610 16 -112 30 -187 63 -340 27 -125 49 -251 57 -321 3 -31 13 -78
22 -105 9 -27 18 -69 22 -94 l6 -45 968 -3 967 -2 0 11810 0 11810 -14765 0
-14765 0 0 -11810z m18754 2727 c25 -99 43 -196 33 -187 -2 3 -17 59 -32 125
-38 169 -38 171 -31 164 3 -3 17 -49 30 -102z m-1090 -2369 c-3 -7 -17 -22
-31 -32 -27 -20 -24 -8 5 27 17 20 34 23 26 5z m117 -688 c85 -26 121 -56 162
-134 30 -58 31 -67 32 -176 0 -111 -1 -117 -34 -181 -37 -74 -116 -171 -135
-167 -7 2 -25 -11 -40 -29 -15 -18 -42 -37 -59 -42 -18 -5 -46 -15 -63 -22
-42 -17 -110 2 -168 47 -52 40 -126 159 -126 204 0 18 -7 47 -16 66 -12 25
-15 55 -13 117 6 119 33 162 159 244 52 34 106 71 120 83 29 24 73 22 181 -10z
m114 -650 c-8 -16 -15 -36 -15 -45 0 -8 -7 -15 -15 -15 -23 0 -18 25 11 59 32
39 39 39 19 1z m549 -835 l17 -30 -20 24 c-12 13 -21 28 -21 34 0 12 0 11 24
-28z m-7646 -1044 c-29 -4 -57 -16 -74 -31 -27 -25 -27 -25 -15 -2 15 29 44
41 96 40 l40 -1 -47 -6z m12247 -1551 c3 -6 -1 -7 -9 -4 -18 7 -21 14 -7 14 6
0 13 -4 16 -10z m105 -87 c0 -9 -37 18 -60 43 -22 24 -20 23 18 -6 23 -18 42
-35 42 -37z m-16384 -615 c-71 -80 -136 -150 -113 -123 9 12 17 27 17 33 0 7
4 12 8 12 4 0 16 14 26 31 20 34 95 109 110 109 4 0 -17 -28 -48 -62z m18350
-653 c11 -17 27 -41 34 -54 l12 -24 -31 23 c-32 22 -63 64 -95 130 l-18 35 39
-40 c21 -22 47 -54 59 -70z m-19651 -1620 c-15 -25 -66 -85 -114 -133 -47 -48
-96 -103 -108 -122 -12 -19 -23 -32 -23 -28 0 6 84 149 147 251 16 25 33 40
53 43 16 4 37 15 46 25 28 31 28 14 -1 -36z m-1111 -1998 c-27 -30 -78 -88
-114 -130 -36 -41 -66 -74 -68 -72 -4 4 44 93 62 114 14 18 157 141 164 141 3
0 -17 -24 -44 -53z m-347 -609 c-2 -13 -4 -5 -4 17 -1 22 1 32 4 23 2 -10 2
-28 0 -40z m-17 -222 c-12 -12 -14 83 -2 135 5 27 8 18 10 -45 2 -46 -2 -84
-8 -90z m9 -426 c0 -25 -4 -63 -8 -85 -7 -32 -9 -20 -10 60 0 68 2 95 9 85 5
-8 10 -35 9 -60z"/>
<path d="M13750 15259 c-80 -4 -115 -10 -146 -27 -47 -24 -86 -27 -160 -13
-34 6 -75 6 -120 -1 -38 -6 -143 -9 -233 -8 -121 1 -175 -3 -210 -14 -25 -8
-82 -20 -126 -26 -44 -7 -83 -17 -87 -24 -4 -6 -13 -33 -19 -61 -15 -68 -2
-96 63 -138 76 -48 146 -61 327 -59 85 1 162 2 172 2 9 0 30 11 46 23 15 13
46 27 68 30 34 6 44 3 59 -15 17 -19 25 -20 100 -15 44 3 124 16 176 28 101
23 269 41 360 40 30 -1 102 -8 160 -16 58 -8 145 -16 193 -17 49 -1 90 -5 93
-9 6 -11 99 -36 177 -49 38 -6 80 -18 93 -26 27 -18 54 -13 54 10 0 8 -7 19
-15 23 -9 6 -11 13 -5 23 8 12 13 11 33 -8 27 -26 40 -27 56 -8 9 11 -3 29
-62 90 -41 42 -79 76 -85 76 -7 0 -45 31 -84 69 -81 76 -109 93 -183 110 -55
13 -521 20 -695 10z"/>
<path d="M10566 14683 c-8 -8 -28 -11 -121 -17 -83 -5 -120 -18 -157 -54 -34
-32 -36 -59 -5 -64 21 -3 22 -9 28 -119 4 -64 12 -126 19 -139 7 -12 9 -35 6
-51 -3 -15 -1 -31 4 -34 17 -10 11 -25 -9 -25 -11 0 -23 -5 -27 -11 -11 -19
36 -47 96 -59 30 -6 72 -15 94 -21 21 -6 140 -12 264 -15 217 -4 229 -3 302
20 41 13 101 31 133 40 31 9 57 21 57 27 0 5 8 9 18 9 9 0 31 9 47 20 17 11
45 20 63 20 29 0 32 3 32 31 0 17 -10 53 -21 80 -17 39 -26 49 -45 49 -13 0
-24 6 -24 13 0 30 -64 108 -104 129 -22 11 -48 26 -56 33 -8 7 -67 34 -130 60
-81 33 -137 49 -190 55 -41 4 -88 13 -103 19 -31 12 -160 15 -171 4z m-136
-142 c-4 -15 -13 -38 -20 -50 -27 -51 31 -237 99 -315 15 -18 15 -19 -14 -12
-80 20 -137 145 -132 292 3 88 15 114 53 114 20 0 22 -3 14 -29z m651 -35 c44
-32 149 -86 165 -86 30 0 41 -60 28 -143 -6 -32 -14 -41 -60 -67 -36 -21 -76
-34 -126 -41 -40 -5 -90 -12 -111 -15 -31 -5 -36 -4 -31 10 3 9 1 16 -6 16
-20 0 -50 -20 -50 -34 0 -12 -39 -30 -47 -22 -1 1 22 23 51 49 54 46 63 64 97
177 8 25 14 75 14 112 0 62 2 68 21 68 12 0 36 -11 55 -24z m263 -228 c4 -17
2 -28 -4 -28 -5 0 -10 14 -10 32 0 36 4 35 14 -4z"/>
<path d="M11377 14678 c-2 -7 11 -42 28 -78 37 -74 85 -284 86 -377 1 -73 -9
-131 -28 -162 -9 -13 -22 -56 -30 -95 -21 -104 -127 -415 -182 -536 -26 -58
-68 -149 -92 -204 -24 -54 -55 -108 -69 -120 -35 -29 -83 -116 -110 -198 -12
-38 -25 -68 -30 -68 -4 0 -24 -37 -43 -82 -34 -77 -37 -93 -43 -214 -6 -131
-6 -132 26 -225 18 -52 45 -110 59 -129 15 -19 37 -52 50 -72 30 -50 104 -114
149 -129 21 -7 68 -36 106 -65 67 -52 108 -64 67 -20 -12 12 -21 29 -21 38 0
18 -86 86 -148 117 -32 16 -55 40 -88 92 -25 38 -58 79 -74 91 -16 12 -27 24
-25 29 3 4 -2 24 -11 45 -12 27 -18 80 -21 175 -4 127 -2 142 23 220 34 107
95 229 138 277 35 39 73 113 101 197 9 27 32 75 51 106 19 31 34 61 34 65 0 5
10 25 23 44 13 19 38 76 57 125 18 50 41 107 51 127 30 58 67 197 88 330 11
68 29 150 40 183 33 98 30 130 -45 371 -13 44 -36 97 -50 117 -24 37 -58 49
-67 25z"/>
<path d="M18130 14638 c-25 -12 -60 -27 -77 -33 -63 -24 -152 -90 -179 -133
-15 -24 -36 -48 -46 -53 -10 -5 -34 -35 -54 -67 -20 -31 -54 -80 -75 -108 -27
-35 -42 -68 -49 -105 -6 -30 -16 -76 -24 -104 -8 -27 -17 -71 -20 -96 -8 -52
-77 -154 -123 -180 -59 -33 -107 -238 -74 -317 10 -25 12 -59 7 -134 -5 -83
-11 -109 -33 -148 -23 -41 -25 -50 -13 -65 71 -86 163 215 119 390 -9 37 -8
54 11 112 14 44 32 77 51 93 49 43 128 160 134 199 4 20 17 81 31 136 13 55
24 106 24 112 0 7 16 34 36 60 20 27 50 71 66 100 16 29 37 54 46 57 9 3 29
26 44 51 26 43 133 125 164 125 7 0 34 11 61 25 l49 26 45 -20 c24 -11 55 -21
69 -21 28 -1 132 -108 150 -154 5 -15 12 -106 16 -204 5 -154 3 -192 -15 -290
-19 -104 -58 -214 -101 -287 -20 -33 -64 -174 -57 -181 2 -3 29 19 59 48 37
36 69 79 96 133 54 109 67 150 92 298 21 120 21 138 10 302 -6 96 -15 189 -20
206 -5 17 -31 55 -57 84 -26 29 -60 67 -74 83 -17 21 -38 32 -65 37 -21 3 -56
15 -76 25 -47 26 -92 25 -148 -2z"/>
<path d="M13580 14590 c-36 -11 -87 -30 -115 -44 -27 -14 -85 -41 -128 -60
-42 -19 -92 -46 -110 -60 -18 -14 -51 -31 -72 -38 -32 -11 -40 -18 -40 -38 0
-37 48 -40 85 -5 l27 26 1 -28 c0 -15 2 -50 2 -78 2 -62 27 -133 52 -146 26
-14 34 12 19 60 -6 21 -11 49 -11 62 0 12 -9 33 -21 45 -17 19 -20 30 -14 64
7 41 9 43 92 81 47 21 87 39 89 39 3 0 -4 -12 -13 -27 -14 -21 -18 -48 -18
-118 0 -78 4 -98 27 -147 27 -55 72 -110 113 -136 34 -22 -235 -6 -318 20 -73
22 -97 19 -97 -10 0 -20 17 -29 105 -55 81 -24 109 -27 344 -37 227 -10 366
-2 530 31 65 13 228 103 341 188 25 18 52 36 60 39 46 17 69 72 30 72 -11 0
-20 -4 -20 -9 0 -11 -82 -60 -245 -149 -97 -53 -147 -74 -195 -82 -36 -6 -75
-14 -87 -17 -33 -8 -28 8 18 63 62 75 79 114 79 184 0 33 -4 68 -9 78 -5 9
-15 37 -22 62 -7 25 -21 55 -32 68 -11 12 -16 22 -11 22 37 -1 305 -80 354
-105 36 -18 100 -28 100 -16 0 5 -9 12 -19 16 -11 3 -35 16 -54 29 -51 35
-344 130 -477 155 -140 26 -252 26 -340 1z"/>
<path d="M18181 14516 c-9 -11 -4 -54 23 -193 19 -98 37 -200 41 -228 6 -42
57 -268 71 -315 11 -33 24 17 24 92 0 109 -87 616 -111 645 -15 17 -34 17 -48
-1z"/>
<path d="M12446 14488 c-28 -93 -34 -328 -10 -403 30 -92 33 -94 33 -25 1 36
2 148 4 249 1 140 -1 185 -10 188 -7 3 -15 -1 -17 -9z"/>
<path d="M14730 14440 c20 -13 40 -13 40 0 0 6 -12 10 -27 10 -22 0 -25 -2
-13 -10z"/>
<path d="M14501 14368 c1 -22 124 -121 205 -164 135 -74 125 -24 -12 56 -28
16 -59 39 -70 51 -16 18 -104 69 -119 69 -3 0 -5 -6 -4 -12z"/>
<path d="M13010 14241 c-57 -56 -34 -141 38 -141 37 0 43 23 12 42 -30 19 -25
55 11 73 37 20 36 49 -4 53 -20 2 -36 -5 -57 -27z"/>
<path d="M14500 14031 l-45 -26 32 -3 c35 -3 83 22 83 44 0 20 -18 16 -70 -15z"/>
<path d="M12485 13890 c3 -5 8 -10 11 -10 2 0 4 5 4 10 0 6 -5 10 -11 10 -5 0
-7 -4 -4 -10z"/>
<path d="M18017 13784 c-8 -8 16 -54 54 -107 40 -55 38 -96 -10 -210 -21 -50
-51 -127 -66 -169 -35 -99 -141 -276 -225 -372 -92 -106 -113 -179 -42 -142
17 9 40 29 52 46 12 16 41 53 66 82 82 96 190 289 229 408 10 30 33 92 51 137
35 84 44 157 25 205 -11 28 -103 128 -117 128 -6 0 -13 -3 -17 -6z"/>
<path d="M12556 13701 c-3 -5 5 -31 18 -58 14 -26 43 -101 66 -165 23 -64 48
-122 55 -128 21 -18 28 6 11 39 -9 16 -29 66 -45 111 -17 45 -34 87 -39 94 -5
6 -16 32 -26 58 -18 50 -31 65 -40 49z"/>
<path d="M11680 12263 c0 -29 23 -55 42 -48 38 15 29 49 -15 60 -22 6 -27 4
-27 -12z"/>
<path d="M12097 12123 c-4 -3 -7 -10 -7 -15 0 -13 110 -58 144 -58 39 0 52 -9
65 -43 13 -33 72 -61 166 -79 86 -15 115 -3 115 47 0 46 -27 63 -127 79 -43 7
-108 21 -145 30 -204 49 -202 49 -211 39z"/>
<path d="M11293 11059 c-28 -4 -83 -19 -122 -34 -58 -22 -78 -35 -106 -72 -19
-25 -35 -52 -35 -59 0 -8 -7 -14 -15 -14 -18 0 -37 -34 -34 -63 1 -12 -4 -34
-11 -49 -25 -52 14 -140 48 -106 12 12 6 90 -9 120 -6 11 -4 18 6 22 9 3 20
17 25 31 6 15 25 44 43 66 32 39 83 64 218 104 63 19 61 20 194 -63 56 -34 65
-37 135 -36 41 0 91 5 110 12 33 10 220 17 423 14 72 -1 97 -6 135 -25 53 -27
130 -48 137 -37 2 4 -13 21 -35 39 -36 29 -116 55 -196 64 -16 2 -42 12 -59
23 -51 33 -284 20 -493 -28 -45 -10 -59 -10 -105 6 -28 10 -74 32 -102 49 -65
39 -89 44 -152 36z"/>
<path d="M12456 10860 c15 -15 69 -46 130 -75 28 -13 54 -30 57 -37 7 -19 141
-83 256 -123 157 -54 157 -54 65 -54 -61 -1 -98 5 -155 24 -40 14 -116 30
-169 36 -52 6 -121 20 -152 30 -32 10 -79 19 -105 19 -27 0 -64 4 -83 10 -23
7 -64 6 -125 -1 -49 -6 -115 -12 -145 -14 -30 -1 -91 -12 -135 -23 -44 -12
-93 -22 -109 -22 -37 0 -144 19 -171 31 -15 6 -12 7 9 2 19 -4 27 -2 22 5 -3
6 -32 14 -64 18 -31 4 -66 12 -77 19 -52 32 -239 20 -322 -22 -78 -38 -43 -62
50 -32 34 10 98 22 142 26 77 5 83 4 157 -30 80 -38 191 -59 239 -47 13 4 47
4 74 0 29 -3 68 -1 95 6 25 7 85 20 134 29 93 18 133 15 234 -12 31 -8 72 -15
91 -14 38 1 199 -31 244 -48 16 -6 27 -7 27 -1 0 10 99 2 115 -10 15 -11 123
-32 133 -26 5 3 23 1 41 -4 37 -10 149 6 170 26 11 10 10 14 -8 23 -11 6 -33
9 -48 5 -20 -4 -24 -3 -14 4 32 22 -7 46 -194 117 -33 13 -92 39 -132 59 -39
20 -78 36 -86 36 -8 0 -26 9 -40 20 -14 11 -45 29 -69 40 -47 21 -99 27 -82
10z"/>
<path d="M11083 10695 c-24 -21 -26 -26 -13 -35 20 -13 21 -13 49 9 16 12 22
24 18 35 -9 22 -21 20 -54 -9z"/>
<path d="M11075 10619 c-11 -17 -2 -18 19 -3 17 12 17 14 4 14 -9 0 -20 -5
-23 -11z"/>
<path d="M11147 10524 c-9 -9 11 -55 42 -94 15 -19 34 -46 41 -60 41 -80 198
-203 293 -231 30 -9 215 -31 247 -30 16 1 155 0 180 -1 8 -1 71 7 140 17 137
19 295 58 319 78 16 13 132 67 145 67 22 0 187 88 219 116 20 19 43 34 50 34
8 0 24 11 37 25 19 20 21 27 10 40 -7 8 -27 15 -45 15 -26 0 -46 -12 -98 -59
-37 -34 -85 -66 -113 -77 -27 -10 -67 -29 -89 -43 -76 -48 -161 -81 -209 -81
-15 0 -37 -10 -51 -24 -22 -22 -36 -26 -117 -30 -334 -18 -364 -19 -488 -2
-173 23 -222 48 -332 169 -47 50 -97 111 -112 135 -24 38 -52 53 -69 36z"/>
<path d="M12940 10470 c0 -5 5 -10 10 -10 6 0 10 5 10 10 0 6 -4 10 -10 10 -5
0 -10 -4 -10 -10z"/>
<path d="M17540 10381 c0 -5 7 -11 15 -15 8 -3 15 -1 15 3 0 5 -7 11 -15 15
-8 3 -15 1 -15 -3z"/>
<path d="M18425 9580 c-13 -39 -11 -421 2 -445 11 -19 12 -19 18 6 3 14 6 47
6 74 0 28 0 116 -1 196 0 81 -4 157 -9 170 l-8 24 -8 -25z"/>
<path d="M19055 9211 c3 -11 7 -147 8 -304 1 -157 4 -283 6 -281 17 17 30 166
31 349 0 175 -3 214 -16 233 -19 27 -38 29 -29 3z"/>
<path d="M18422 9073 c-6 -21 -14 -94 -17 -163 -4 -69 -13 -147 -22 -175 -25
-81 -64 -178 -84 -207 -11 -14 -19 -31 -19 -37 0 -52 -126 -349 -185 -436 -11
-16 -26 -39 -33 -50 -7 -11 -21 -33 -32 -50 -11 -16 -25 -48 -30 -70 -6 -22
-24 -71 -40 -109 -57 -131 -28 -140 34 -12 20 41 43 93 51 117 9 24 22 50 29
59 30 34 65 100 157 296 15 33 42 107 59 165 17 57 44 131 59 164 54 113 71
193 91 419 10 113 2 155 -18 89z"/>
<path d="M19073 8497 c-7 -12 32 -47 54 -47 7 0 27 -10 42 -21 16 -12 46 -25
68 -29 70 -15 101 -30 203 -96 19 -12 47 -26 62 -29 25 -7 69 -28 173 -84 22
-11 48 -21 58 -21 83 0 386 -151 546 -272 58 -44 178 -113 330 -189 123 -62
126 -63 252 -76 70 -7 139 -17 154 -23 14 -5 41 -10 58 -10 35 0 134 -33 151
-50 5 -5 16 -10 23 -10 15 0 124 -47 193 -84 84 -45 163 -44 102 1 -50 36
-201 109 -274 133 -21 6 -41 16 -44 22 -10 16 -73 39 -129 48 -27 5 -77 15
-110 23 -33 8 -96 17 -140 21 -88 7 -147 26 -214 68 -25 15 -52 28 -62 28 -9
0 -27 8 -40 19 -13 10 -56 36 -94 56 -39 21 -88 51 -110 67 -40 29 -187 119
-235 144 -14 7 -56 28 -95 47 -38 19 -83 42 -100 50 -16 9 -57 21 -90 27 -49
10 -212 80 -337 146 -14 8 -34 14 -43 14 -9 0 -28 9 -42 20 -14 11 -35 20 -47
20 -11 0 -30 7 -40 15 -11 8 -32 15 -47 15 -14 0 -38 9 -52 20 -35 28 -115 52
-124 37z"/>
<path d="M9497 8302 c-31 -34 -106 -208 -161 -372 -53 -159 -73 -246 -95 -412
-6 -42 -12 -81 -13 -86 -2 -6 1 -12 6 -14 6 -1 27 49 48 112 171 512 248 750
248 763 0 24 -16 28 -33 9z"/>
<path d="M11872 8027 c9 -7 25 -28 35 -47 11 -19 31 -41 45 -47 30 -15 68 -63
90 -113 25 -56 27 -67 15 -79 -8 -8 -13 -57 -14 -134 -2 -145 -16 -282 -38
-392 -56 -280 -56 -401 -1 -660 32 -152 64 -245 100 -290 15 -19 15 -19 16 15
0 19 -9 59 -21 89 -11 30 -34 120 -51 200 -36 172 -39 308 -13 491 34 242 55
439 55 530 1 63 6 103 15 120 20 35 20 136 0 144 -8 3 -15 11 -15 17 0 24 -72
99 -123 127 -57 32 -126 53 -95 29z"/>
<path d="M18660 7803 c-29 -12 -270 -266 -302 -319 -55 -92 -68 -118 -68 -140
0 -12 -7 -38 -15 -57 -8 -20 -15 -46 -15 -58 0 -36 23 -15 46 42 61 157 132
271 208 338 70 61 176 179 176 195 0 7 -9 7 -30 -1z"/>
<path d="M8686 7743 c-3 -10 -10 -47 -17 -83 -7 -36 -26 -94 -44 -130 -55
-111 -205 -537 -205 -583 0 -57 14 -39 49 63 43 125 137 373 176 465 29 70 65
218 65 268 0 22 -17 22 -24 0z"/>
<path d="M17908 7633 c-20 -22 -36 -79 -19 -69 15 10 43 65 39 77 -2 6 -11 2
-20 -8z"/>
<path d="M11663 7586 c-70 -23 -73 -23 -78 -5 -4 11 -11 17 -16 13 -5 -3 -6
-12 0 -21 6 -12 1 -22 -19 -40 -34 -28 -48 -29 -52 -3 -4 27 -22 27 -26 0 -8
-49 40 -64 89 -30 15 12 52 29 82 39 64 22 113 47 122 61 10 16 -24 11 -102
-14z"/>
<path d="M11374 7471 c-18 -11 -46 -37 -63 -58 -17 -22 -59 -55 -92 -73 -62
-35 -93 -73 -155 -188 -16 -30 -37 -68 -46 -85 -14 -26 -18 -56 -18 -152 0
-151 19 -267 61 -370 39 -99 86 -165 164 -235 33 -30 72 -70 86 -90 15 -19 50
-57 79 -85 28 -27 60 -66 70 -85 23 -45 56 -75 65 -61 12 21 -40 105 -112 183
-40 43 -73 81 -73 86 0 5 -40 49 -88 98 -86 87 -116 133 -157 245 -30 78 -47
216 -41 321 5 94 7 101 56 190 67 122 93 154 143 179 39 20 207 175 207 191 0
15 -55 8 -86 -11z"/>
<path d="M17694 7388 c-16 -30 -46 -73 -168 -233 -25 -33 -59 -69 -74 -80 -16
-11 -59 -55 -96 -97 -37 -42 -97 -101 -135 -131 -78 -64 -161 -145 -161 -158
0 -19 31 -8 67 24 21 18 72 60 113 92 190 149 493 502 502 585 5 39 -27 38
-48 -2z"/>
<path d="M21580 7392 c0 -6 5 -14 11 -18 22 -13 155 -35 248 -39 52 -3 114
-12 138 -20 24 -8 60 -15 81 -16 63 0 175 -24 217 -46 22 -11 56 -24 75 -28
96 -19 304 -122 378 -187 56 -49 252 -138 304 -138 60 0 138 -24 227 -71 41
-21 82 -39 91 -39 27 0 210 -96 272 -142 150 -113 189 -138 246 -157 34 -12
68 -21 75 -21 8 0 45 -25 83 -56 78 -64 106 -79 128 -71 42 17 8 63 -99 134
-54 36 -80 46 -182 72 -17 5 -64 33 -105 63 -40 30 -94 69 -119 86 -25 16 -51
37 -58 45 -15 19 -183 101 -226 111 -16 4 -60 23 -97 42 -79 39 -168 64 -229
64 -55 0 -213 75 -284 135 -87 72 -233 141 -380 179 -27 7 -68 22 -90 33 -23
12 -80 26 -135 32 -52 7 -115 17 -140 23 -25 6 -92 14 -150 18 -58 4 -144 11
-192 15 -62 6 -88 5 -88 -3z"/>
<path d="M7227 6943 c-3 -4 -8 -55 -12 -113 -4 -58 -13 -166 -22 -240 -8 -74
-17 -256 -20 -405 -6 -293 10 -547 48 -756 20 -111 81 -339 99 -367 14 -22 9
6 -36 209 -60 273 -66 327 -71 681 -5 319 3 527 29 693 15 99 16 297 1 302 -6
2 -13 0 -16 -4z"/>
<path d="M18070 6792 c0 -4 -22 -33 -49 -63 -26 -29 -56 -69 -65 -88 -27 -52
-102 -139 -154 -179 -26 -19 -59 -48 -74 -63 -16 -15 -41 -30 -57 -34 -17 -3
-47 -20 -68 -37 -24 -19 -30 -28 -18 -25 123 33 137 40 201 92 36 30 70 55 74
55 8 0 50 54 131 168 25 35 53 69 62 74 24 13 49 66 42 88 -6 19 -25 28 -25
12z"/>
<path d="M8343 6750 c-11 -25 -23 -63 -27 -85 -9 -47 -141 -447 -162 -487 -8
-15 -30 -87 -49 -160 -19 -73 -42 -158 -50 -188 -8 -30 -15 -76 -15 -102 0
-26 -11 -87 -25 -135 -13 -48 -29 -137 -35 -198 -7 -60 -14 -132 -17 -160 -3
-32 -2 -46 4 -40 8 9 21 85 55 320 5 39 15 93 23 120 7 28 18 82 24 121 6 39
18 90 26 115 9 24 27 91 41 149 13 58 40 146 58 195 43 112 140 409 161 493
20 80 14 101 -12 42z"/>
<path d="M16350 6493 l-137 -138 -76 -158 c-42 -87 -81 -177 -87 -200 -6 -23
-22 -77 -36 -120 -25 -81 -32 -157 -14 -157 13 0 19 16 60 155 18 61 67 184
109 274 l76 164 138 148 c75 81 137 153 137 158 0 33 -48 -3 -170 -126z"/>
<path d="M16684 6392 c-110 -107 -219 -248 -233 -299 -14 -49 -14 -229 -1
-254 6 -10 18 -19 28 -19 15 0 17 14 17 133 0 155 -2 151 125 292 86 96 124
150 115 164 -10 17 -21 13 -51 -17z"/>
<path d="M17484 6266 c-26 -12 -54 -36 -41 -36 8 0 87 41 87 45 0 8 -13 5 -46
-9z"/>
<path d="M24245 6270 c-11 -18 17 -52 58 -70 28 -13 50 -32 67 -60 26 -43 103
-137 201 -244 30 -34 69 -82 85 -108 31 -51 44 -60 44 -30 0 33 -84 159 -164
246 -44 47 -90 105 -104 128 -29 51 -71 98 -87 98 -5 0 -27 11 -47 25 -41 28
-44 29 -53 15z"/>
<path d="M17330 6185 c-14 -8 -20 -14 -15 -14 6 0 21 6 35 14 14 8 21 14 15
14 -5 0 -21 -6 -35 -14z"/>
<path d="M12141 6173 c1 -30 15 -58 22 -46 7 11 -8 63 -18 63 -3 0 -5 -8 -4
-17z"/>
<path d="M12179 6055 c-4 -5 -10 -31 -13 -57 -8 -54 11 -121 49 -178 12 -19
26 -46 30 -60 9 -32 25 -51 36 -45 8 5 -10 59 -35 105 -19 35 -48 135 -55 195
-3 27 -9 46 -12 40z"/>
<path d="M11534 5968 c-26 -50 -44 -169 -55 -353 -17 -291 -15 -381 8 -465 70
-250 145 -388 353 -646 36 -45 96 -122 135 -170 38 -49 89 -110 113 -137 24
-26 49 -60 55 -75 20 -46 108 -201 143 -254 19 -27 48 -80 65 -116 16 -37 39
-83 50 -103 10 -20 19 -42 19 -49 0 -7 18 -56 39 -110 88 -216 118 -412 136
-865 4 -77 15 -230 25 -340 11 -110 24 -263 30 -340 12 -144 21 -206 46 -311
8 -33 18 -92 23 -130 12 -86 44 -237 70 -329 11 -38 32 -110 46 -160 17 -61
32 -154 45 -287 12 -125 29 -235 46 -300 29 -113 90 -238 149 -302 l35 -40 0
51 c0 35 -11 78 -35 138 -53 130 -83 271 -95 447 -6 84 -15 176 -21 203 -10
48 -17 75 -73 270 -36 126 -63 246 -76 340 -6 44 -17 103 -25 130 -17 62 -34
194 -45 350 -5 66 -16 190 -24 275 -8 85 -22 247 -31 360 -9 113 -21 234 -26
270 -5 36 -14 100 -19 142 -14 117 -67 322 -110 423 -21 50 -41 101 -45 115
-19 65 -100 240 -139 299 -23 36 -73 124 -111 195 -38 71 -80 135 -92 143 -12
8 -39 38 -59 67 -21 28 -55 71 -76 96 -70 82 -249 312 -275 354 -57 89 -104
186 -141 292 -56 156 -67 231 -56 389 5 72 9 168 9 215 1 91 15 182 40 269 9
29 14 59 11 67 -10 26 -45 16 -62 -18z"/>
<path d="M20873 5905 c-63 -55 -303 -402 -303 -438 0 -27 99 89 174 203 46 69
108 155 139 191 53 62 68 89 49 89 -4 0 -31 -20 -59 -45z"/>
<path d="M6527 5863 c-52 -52 -130 -168 -168 -249 -20 -45 -53 -105 -72 -133
-26 -38 -37 -66 -42 -109 -4 -31 -13 -100 -21 -152 -36 -233 -39 -301 -20
-412 10 -56 27 -119 38 -138 l19 -35 -8 80 c-11 114 -8 330 6 395 6 31 18 116
26 189 12 121 16 138 46 185 18 28 51 85 73 126 23 42 60 100 83 130 41 54 89
150 75 150 -4 0 -20 -12 -35 -27z"/>
<path d="M24750 5690 c0 -10 56 -77 145 -175 25 -27 66 -78 91 -113 43 -60 68
-81 81 -69 12 13 -86 147 -187 254 -96 103 -130 130 -130 103z"/>
<path d="M15717 5643 c-2 -10 -8 -26 -12 -35 -5 -13 -2 -18 8 -18 18 0 22 5
31 43 5 20 3 27 -8 27 -7 0 -16 -8 -19 -17z"/>
<path d="M15713 5473 c-43 -30 -25 -54 34 -45 21 3 51 -3 82 -17 27 -11 68
-21 91 -21 49 0 76 -25 150 -134 50 -74 72 -93 88 -73 7 9 -5 39 -44 107 -75
131 -95 150 -176 160 -35 4 -78 15 -96 24 -39 20 -100 20 -129 -1z"/>
<path d="M17692 5463 c-11 -16 -23 -39 -27 -53 -4 -14 -42 -92 -85 -175 -43
-82 -110 -231 -149 -330 -40 -99 -106 -248 -146 -331 -41 -83 -75 -154 -75
-159 0 -4 -20 -35 -44 -69 -44 -62 -153 -278 -176 -351 -19 -59 -86 -201 -124
-264 -19 -31 -43 -83 -54 -116 -24 -72 -55 -147 -82 -196 -11 -20 -33 -69 -49
-108 -16 -40 -52 -112 -80 -161 -28 -48 -58 -106 -65 -128 -13 -36 -75 -133
-164 -257 -119 -165 -218 -315 -244 -372 -18 -37 -43 -84 -56 -103 -13 -19
-61 -112 -107 -206 -45 -94 -96 -191 -112 -215 -51 -77 -182 -351 -202 -424
-75 -278 -94 -345 -120 -403 -16 -37 -50 -134 -77 -217 -26 -82 -72 -224 -101
-313 -68 -208 -80 -281 -65 -401 13 -105 15 -111 46 -111 23 0 23 2 28 143 6
142 6 143 73 352 37 116 92 280 122 365 80 224 106 306 153 480 30 111 56 181
90 245 26 50 53 107 59 127 7 20 31 65 53 100 23 35 77 137 121 227 43 91 91
183 105 205 14 23 42 75 63 116 20 41 57 103 82 136 25 34 75 106 111 160 37
55 95 140 130 190 35 50 71 113 81 140 10 27 43 91 72 141 30 51 62 116 72
145 11 29 37 89 59 133 23 44 54 119 71 167 16 48 46 115 65 150 19 35 58 122
86 193 28 72 68 168 90 215 21 47 55 125 74 174 20 49 40 94 45 100 17 20 241
467 278 554 21 48 69 146 108 217 116 214 144 295 109 309 -22 8 -20 9 -42
-21z"/>
<path d="M12380 5429 c0 -47 39 -312 55 -374 9 -33 19 -101 24 -151 4 -50 11
-95 14 -101 17 -27 28 -167 32 -420 3 -154 10 -315 15 -359 6 -43 17 -135 25
-204 12 -101 25 -156 69 -283 30 -87 57 -161 60 -164 12 -13 5 46 -25 192 -16
83 -37 209 -44 280 -8 72 -19 168 -25 215 -5 47 -10 197 -10 333 0 245 -8 346
-36 441 -8 27 -14 65 -14 84 0 63 -103 490 -126 519 -12 17 -13 16 -14 -8z"/>
<path d="M15494 5408 c-15 -18 -39 -40 -54 -49 -41 -26 -67 -76 -81 -161 -18
-107 -3 -167 58 -239 55 -66 53 -64 133 -90 36 -12 70 -27 75 -33 15 -19 86
-18 107 1 23 21 23 56 1 75 -17 14 -66 29 -140 43 -18 4 -33 11 -33 16 0 5 -9
9 -19 9 -11 0 -34 18 -52 41 l-32 40 13 72 c7 40 15 91 18 115 2 27 10 46 22
52 10 5 32 30 49 56 24 36 28 51 20 65 -15 29 -54 23 -85 -13z"/>
<path d="M11134 5258 c-4 -6 -9 -41 -11 -77 -1 -36 -7 -87 -13 -112 -5 -25
-14 -147 -20 -270 -6 -123 -15 -303 -21 -399 -6 -96 -15 -267 -20 -380 -4
-113 -10 -248 -12 -300 -3 -52 -3 -77 -1 -55 2 22 11 99 19 170 15 126 23 239
45 625 14 247 38 539 56 678 8 62 12 117 9 122 -8 13 -22 12 -31 -2z"/>
<path d="M21395 5208 c-70 -51 -134 -120 -197 -213 -34 -49 -125 -180 -203
-290 -78 -110 -162 -234 -187 -275 -56 -93 -111 -201 -105 -206 6 -7 90 101
187 241 46 66 124 174 175 240 50 66 122 165 159 220 66 96 101 142 163 213
38 43 65 90 56 95 -5 2 -26 -9 -48 -25z"/>
<path d="M25210 5129 c0 -6 21 -41 47 -78 76 -105 135 -199 188 -296 63 -117
133 -225 146 -225 12 0 -13 62 -50 120 -37 61 -43 72 -90 170 -23 47 -62 113
-89 147 -26 34 -66 87 -90 117 -41 54 -62 69 -62 45z"/>
<path d="M18636 5112 c-3 -5 -15 -35 -27 -68 -12 -32 -46 -115 -77 -183 -30
-68 -57 -145 -60 -170 l-4 -46 20 20 c39 38 199 414 188 442 -6 14 -32 18 -40
5z"/>
<path d="M7922 5007 c-16 -32 -69 -262 -76 -327 l-5 -55 19 59 c11 32 24 87
30 120 5 34 19 97 30 140 21 82 21 102 2 63z"/>
<path d="M20047 4808 c-73 -112 -160 -248 -192 -303 -32 -55 -107 -176 -165
-270 -182 -289 -275 -470 -340 -665 -124 -366 -176 -490 -333 -800 -66 -130
-127 -267 -146 -325 -64 -199 -122 -568 -120 -762 1 -114 12 -74 59 202 72
428 106 552 211 778 159 342 315 715 394 942 90 259 396 792 728 1271 42 62
77 117 77 123 0 6 -9 11 -19 11 -15 0 -56 -55 -154 -202z"/>
<path d="M10676 4938 c-3 -24 -7 -95 -10 -158 -3 -63 -14 -162 -26 -220 -19
-100 -26 -179 -15 -168 3 3 16 65 30 139 13 74 29 158 34 188 14 67 14 261 2
261 -6 0 -12 -19 -15 -42z"/>
<path d="M15906 4933 c-3 -4 -6 -14 -6 -24 0 -21 47 -37 130 -45 71 -7 110 7
110 41 0 14 -3 25 -7 26 -71 5 -223 6 -227 2z"/>
<path d="M6510 4894 c26 -30 50 -36 76 -19 38 25 29 35 -32 35 -50 0 -55 -2
-44 -16z"/>
<path d="M15870 4855 c0 -8 7 -15 16 -15 14 0 14 3 4 15 -7 8 -14 15 -16 15
-2 0 -4 -7 -4 -15z"/>
<path d="M24987 4723 c9 -186 -11 -267 -161 -633 -30 -74 -58 -153 -61 -175
l-6 -40 28 32 c26 29 149 306 193 436 37 111 63 255 58 328 -3 38 -11 75 -17
83 -7 8 -14 27 -15 42 -2 16 -8 30 -14 32 -7 2 -9 -30 -5 -105z"/>
<path d="M15540 4780 c-30 -4 -86 -19 -124 -34 -38 -14 -86 -26 -106 -26 -53
0 -145 -62 -193 -131 -102 -144 -135 -204 -180 -319 -27 -69 -54 -147 -59
-175 -10 -49 -69 -249 -109 -370 -11 -33 -28 -87 -38 -120 -20 -67 -67 -167
-100 -214 -12 -17 -42 -76 -67 -132 -24 -56 -64 -139 -88 -183 -71 -131 -193
-395 -229 -497 -65 -180 -147 -377 -187 -451 -22 -41 -48 -100 -59 -130 -10
-30 -34 -84 -53 -120 -36 -68 -64 -148 -96 -283 -27 -113 -120 -369 -182 -505
-29 -63 -74 -165 -101 -227 -26 -61 -68 -146 -93 -189 -25 -43 -46 -82 -46
-87 0 -4 -29 -61 -65 -125 -42 -76 -81 -168 -113 -262 -73 -218 -72 -200 -10
-200 l53 0 55 162 c30 89 70 187 88 218 19 30 56 100 84 154 27 55 60 116 73
136 13 21 45 89 70 151 26 63 58 137 72 164 71 145 195 485 223 615 24 106 51
187 84 242 13 24 37 77 52 118 14 41 41 100 60 130 32 52 108 238 179 437 18
51 58 145 88 210 30 65 67 145 83 178 15 33 47 94 70 135 23 41 59 116 80 165
21 50 49 108 64 130 38 58 98 189 106 233 4 20 15 54 25 74 11 20 28 74 39
120 10 46 33 120 50 166 16 45 30 96 30 112 0 16 15 67 34 112 18 46 39 99 45
119 11 35 80 152 143 242 38 55 110 107 147 107 15 0 59 16 100 35 40 19 91
38 114 41 76 11 111 50 68 74 -11 5 -21 9 -23 9 -2 -1 -28 -5 -58 -9z"/>
<path d="M7061 4565 c-1 -25 47 -266 54 -273 8 -9 6 6 -20 143 -27 139 -33
162 -34 130z"/>
<path d="M7793 4475 c-18 -55 -37 -121 -43 -147 -13 -59 -13 -415 1 -423 5 -4
9 55 9 152 0 179 10 255 46 365 14 44 24 93 22 115 -3 35 -6 29 -35 -62z"/>
<path d="M25663 4394 c20 -39 47 -63 47 -42 0 8 -14 27 -31 44 l-31 29 15 -31z"/>
<path d="M15990 4284 c-6 -14 -10 -27 -10 -29 0 -17 -155 -381 -217 -508 -61
-126 -77 -168 -81 -215 -4 -51 -3 -55 11 -42 8 8 29 49 47 90 18 41 49 107 71
145 65 119 231 535 225 562 -8 31 -34 29 -46 -3z"/>
<path d="M15427 4154 c-4 -4 -7 -16 -7 -27 0 -11 -13 -47 -29 -81 -33 -69 -34
-73 -106 -291 -29 -88 -60 -176 -68 -195 -8 -19 -29 -87 -47 -150 -17 -63 -51
-170 -76 -237 -65 -179 -58 -230 12 -91 49 98 81 183 231 628 33 96 76 216 96
266 21 50 37 103 37 117 0 28 -31 72 -43 61z"/>
<path d="M18210 4139 c0 -5 5 -7 10 -4 6 3 10 8 10 11 0 2 -4 4 -10 4 -5 0
-10 -5 -10 -11z"/>
<path d="M18180 4090 c-12 -16 -17 -30 -11 -30 6 0 17 14 26 30 9 17 13 30 11
30 -3 0 -14 -13 -26 -30z"/>
<path d="M26064 4096 c-3 -8 0 -24 6 -35 26 -49 106 -316 126 -418 8 -41 14
-118 15 -171 1 -54 5 -108 10 -122 5 -15 7 71 5 210 l-2 235 -43 130 c-24 72
-50 142 -57 158 -16 29 -51 37 -60 13z"/>
<path d="M23716 3974 c-53 -59 -113 -134 -132 -167 -44 -75 -87 -129 -184
-232 -41 -44 -111 -133 -154 -198 -83 -126 -106 -185 -216 -561 -21 -72 -52
-169 -69 -216 -16 -47 -39 -141 -51 -210 -30 -180 -67 -315 -157 -570 -44
-124 -85 -245 -91 -270 -19 -76 -51 -480 -39 -480 11 0 50 145 83 315 21 104
59 245 99 365 79 240 137 464 165 633 21 123 34 168 217 732 52 159 125 272
291 450 51 55 114 133 140 173 50 79 75 111 165 221 56 68 71 108 41 118 -6 2
-54 -45 -108 -103z"/>
<path d="M17960 3829 c-210 -235 -229 -260 -290 -379 -33 -63 -84 -150 -115
-192 -62 -86 -236 -396 -332 -589 -34 -70 -93 -178 -132 -240 -40 -67 -78
-143 -91 -184 -30 -97 -47 -137 -101 -231 -85 -148 -154 -344 -198 -562 -17
-84 -50 -225 -72 -314 -33 -134 -42 -186 -46 -294 -4 -84 -2 -138 5 -150 10
-18 11 -18 20 6 5 14 12 69 16 123 7 111 26 212 97 537 53 242 89 363 151 505
22 50 61 140 88 200 56 129 106 224 207 393 40 67 86 151 102 185 15 35 54
110 86 167 32 58 86 157 120 220 34 63 84 147 112 186 28 40 86 132 128 205
43 74 114 181 159 239 45 58 101 135 124 171 24 37 52 75 63 85 24 22 43 54
32 54 -4 -1 -64 -64 -133 -141z"/>
<path d="M20423 3863 c-95 -147 -132 -225 -236 -493 -36 -91 -106 -257 -157
-370 -118 -260 -165 -379 -196 -494 -32 -118 -64 -298 -63 -350 l1 -41 19 42
c11 23 39 120 64 215 54 213 71 261 175 513 233 567 361 853 434 974 39 63 44
81 22 81 -7 0 -36 -35 -63 -77z"/>
<path d="M7751 3760 c-16 -146 -18 -717 -4 -818 10 -68 13 -225 12 -590 -1
-436 1 -502 15 -541 9 -24 16 -67 16 -95 0 -29 9 -101 20 -161 14 -78 20 -152
20 -259 0 -83 3 -236 8 -341 l7 -190 5 160 c6 178 -5 642 -18 805 -4 58 -14
116 -23 130 -12 21 -14 108 -14 535 -1 431 -3 521 -17 580 -11 51 -14 99 -11
175 3 58 0 144 -6 190 -6 52 -8 124 -3 185 6 87 0 303 -7 235z"/>
<path d="M26380 3710 c0 -6 47 -105 105 -221 161 -321 217 -498 285 -899 35
-205 46 -253 95 -420 20 -68 45 -189 60 -295 37 -258 103 -535 127 -535 30 0
-52 448 -122 661 -26 81 -80 354 -135 679 -31 184 -78 386 -117 500 -69 202
-298 609 -298 530z"/>
<path d="M10558 3681 c-5 -18 -7 -108 -7 -200 1 -138 3 -156 10 -106 11 73 8
356 -3 306z"/>
<path d="M7224 3596 c-3 -8 11 -85 31 -172 20 -88 47 -220 60 -294 13 -75 33
-169 44 -210 12 -41 48 -174 82 -295 79 -286 109 -381 126 -403 12 -15 13 -9
8 48 -9 92 -38 219 -94 410 -80 271 -99 348 -121 495 -27 176 -63 349 -83 398
-16 37 -43 49 -53 23z"/>
<path d="M11021 3554 c0 -11 3 -14 6 -6 3 7 2 16 -1 19 -3 4 -6 -2 -5 -13z"/>
<path d="M7592 3538 c-10 -14 -29 -142 -35 -248 -8 -126 8 -372 26 -414 10
-22 20 -37 23 -34 3 3 0 44 -6 89 -12 85 -5 339 9 339 4 0 15 -32 26 -71 15
-61 18 -106 16 -320 -1 -162 1 -249 8 -249 23 0 34 84 38 295 4 201 3 227 -17
305 -26 100 -37 123 -56 116 -8 -3 -14 -4 -14 -2 0 2 7 40 15 85 12 59 13 86
5 101 -12 23 -23 25 -38 8z"/>
<path d="M7367 3424 c-21 -21 2 -94 29 -94 12 0 14 8 8 38 -7 39 -25 67 -37
56z"/>
<path d="M10546 3299 c-8 -27 -36 -384 -35 -444 2 -106 16 -11 33 229 15 195
15 258 2 215z"/>
<path d="M12724 3133 c3 -16 8 -53 11 -83 8 -71 24 -122 36 -115 5 4 9 18 9
32 0 34 -19 141 -31 171 -12 32 -32 28 -25 -5z"/>
<path d="M12758 2823 c-15 -116 9 -443 32 -443 20 0 21 102 4 285 -9 107 -21
195 -24 195 -4 0 -10 -17 -12 -37z"/>
<path d="M24090 2850 c0 -6 -11 -27 -24 -48 -13 -20 -29 -53 -35 -72 -6 -19
-39 -69 -72 -110 -83 -102 -140 -202 -195 -339 -25 -64 -68 -153 -95 -198 -47
-77 -84 -161 -75 -170 2 -2 36 40 76 94 49 66 99 152 153 263 44 91 114 219
155 284 42 66 87 146 100 179 29 72 39 127 23 127 -6 0 -11 -5 -11 -10z"/>
<path d="M4944 2805 c-12 -29 13 -287 30 -326 16 -34 16 -34 11 36 -3 39 -8
117 -11 175 -7 112 -17 150 -30 115z"/>
<path d="M11396 2481 c-9 -13 1 -31 17 -31 6 0 27 -11 48 -25 41 -29 278 -115
315 -115 28 0 42 24 25 44 -7 8 -65 31 -129 51 -64 20 -136 45 -158 55 -56 25
-110 35 -118 21z"/>
<path d="M12795 2172 c2 -79 6 -146 8 -149 12 -11 18 84 12 165 -13 146 -24
136 -20 -16z"/>
<path d="M26162 2263 c-6 -16 -16 -47 -22 -70 -6 -22 -35 -102 -64 -176 -72
-179 -158 -445 -189 -587 -50 -223 -80 -434 -72 -497 l8 -58 15 35 c8 19 25
98 39 175 63 361 139 629 271 955 49 123 76 214 69 234 -10 26 -43 19 -55 -11z"/>
<path d="M26251 2239 c-13 -38 -26 -129 -18 -129 6 0 47 129 47 149 0 23 -18
10 -29 -20z"/>
<path d="M10997 2243 c-11 -10 -8 -73 3 -73 6 0 10 18 10 40 0 41 -2 45 -13
33z"/>
<path d="M4614 2228 c-34 -16 -130 -227 -149 -328 -10 -47 -30 -136 -46 -198
-34 -134 -49 -286 -39 -397 11 -129 27 -138 34 -19 13 210 28 305 77 494 40
158 61 218 108 315 66 135 68 159 15 133z"/>
<path d="M11294 2175 c-9 -23 3 -44 33 -56 35 -14 195 -90 284 -134 78 -40
143 -58 169 -50 25 8 25 21 2 41 -28 24 -351 173 -402 186 -25 6 -53 15 -63
20 -12 6 -19 5 -23 -7z"/>
<path d="M14470 2147 c-103 -13 -126 -24 -191 -94 -101 -108 -111 -199 -39
-358 56 -122 127 -159 335 -176 159 -13 234 -14 287 -4 22 4 51 2 75 -6 22 -8
90 -14 163 -15 92 -1 137 -6 170 -18 55 -21 164 -26 182 -8 18 18 -1 45 -38
54 -16 3 -66 16 -110 27 -59 15 -113 21 -197 21 -69 0 -139 6 -172 14 -49 13
-61 13 -108 -1 -42 -12 -64 -13 -117 -4 -36 6 -109 13 -162 16 -105 6 -168 26
-205 66 -28 32 -72 138 -80 194 -5 38 -2 51 22 86 15 23 47 61 71 84 42 41 46
43 141 54 135 17 219 14 272 -10 29 -13 66 -19 111 -19 37 0 83 -6 101 -14 45
-18 219 -29 253 -16 20 7 36 6 63 -5 19 -8 48 -15 63 -15 15 0 47 -13 71 -30
24 -16 60 -32 79 -36 19 -3 52 -19 73 -36 38 -30 57 -30 57 1 0 30 -68 81
-107 81 -10 0 -43 16 -73 35 -30 19 -65 35 -78 35 -14 0 -46 8 -72 17 -42 15
-53 15 -88 4 -31 -11 -48 -11 -73 -2 -17 6 -52 11 -76 11 -24 0 -58 8 -76 17
-20 10 -59 17 -102 18 -46 1 -82 8 -105 20 -44 24 -184 29 -320 12z"/>
<path d="M10990 2099 c-1 -2 -8 -40 -16 -84 -17 -91 -30 -737 -15 -777 7 -19
9 -15 15 27 8 69 28 826 21 833 -3 3 -5 3 -5 1z"/>
<path d="M10362 1825 c-3 -131 -10 -191 -51 -424 -11 -62 -23 -166 -26 -230
-5 -109 -4 -114 10 -83 8 18 24 96 35 175 11 78 27 176 35 217 27 143 38 264
31 357 -6 92 -13 123 -25 123 -3 0 -7 -61 -9 -135z"/>
<path d="M5205 1904 c4 -11 20 -53 35 -94 15 -41 42 -103 59 -136 17 -34 31
-64 31 -68 0 -10 81 -189 152 -336 60 -124 126 -235 134 -227 3 2 -25 67 -62
143 -74 154 -138 295 -191 424 -19 47 -41 92 -49 101 -8 9 -31 58 -52 109 -20
52 -43 96 -51 98 -11 4 -12 0 -6 -14z"/>
<path d="M26284 1856 c-3 -14 9 -69 29 -137 53 -173 115 -406 128 -484 14 -87
28 -116 29 -60 0 68 -29 300 -49 392 -10 49 -36 139 -56 201 -30 90 -41 112
-56 112 -11 0 -21 -9 -25 -24z"/>
<path d="M7524 1824 c-4 -14 -4 -42 0 -62 4 -20 11 -131 16 -247 9 -193 29
-369 45 -395 14 -22 25 4 25 58 0 31 -7 125 -15 207 -8 83 -20 206 -25 275
-13 157 -19 190 -30 190 -5 0 -13 -11 -16 -26z"/>
<path d="M14625 1837 c-102 -9 -178 -34 -183 -60 -5 -26 25 -32 68 -12 58 26
455 27 550 1 36 -9 83 -22 105 -28 22 -5 69 -28 104 -50 74 -46 130 -59 150
-34 12 14 11 19 -4 36 -10 11 -23 20 -30 20 -6 0 -40 18 -76 39 -35 21 -87 46
-116 54 -111 33 -391 50 -568 34z"/>
<path d="M25481 1796 c-26 -31 -189 -595 -229 -791 -33 -159 -52 -306 -51
-391 1 -100 6 -85 59 181 49 243 121 523 201 782 33 107 59 202 57 210 -4 22
-23 27 -37 9z"/>
<path d="M23516 1791 c-4 -7 -5 -15 -2 -18 9 -9 19 4 14 18 -4 11 -6 11 -12 0z"/>
<path d="M12823 1635 c0 -33 2 -45 4 -27 2 18 2 45 0 60 -2 15 -4 0 -4 -33z"/>
<path d="M23189 1457 c-26 -23 -77 -64 -114 -92 -101 -75 -185 -170 -258 -291
-36 -60 -84 -136 -107 -169 -39 -59 -49 -85 -31 -85 16 0 55 53 141 190 83
132 152 211 270 309 64 54 160 156 160 171 0 18 -14 10 -61 -33z"/>
<path d="M10952 1155 c0 -16 2 -22 5 -12 2 9 2 23 0 30 -3 6 -5 -1 -5 -18z"/>
<path d="M4460 967 c0 -71 38 -316 65 -421 13 -52 32 -129 41 -172 19 -95 32
-124 45 -102 5 9 -7 83 -32 194 -22 98 -49 238 -60 309 -23 147 -38 216 -50
230 -5 5 -9 -11 -9 -38z"/>
<path d="M4057 764 c-8 -9 -9 -70 -1 -101 10 -38 24 -26 23 20 -1 52 -12 91
-22 81z"/>
<path d="M25817 523 c-8 -13 -17 -90 -32 -290 -19 -243 -19 -233 5 -233 11 0
20 1 20 3 0 2 7 50 15 108 8 57 17 175 21 262 6 140 5 157 -9 157 -9 0 -18 -3
-20 -7z"/>
<path d="M26520 397 c0 -47 33 -334 41 -355 17 -44 22 -15 11 65 -6 43 -14
112 -17 153 -9 109 -16 150 -26 150 -5 0 -9 -6 -9 -13z"/>
<path d="M7120 236 c0 -9 30 -14 35 -6 4 6 -3 10 -14 10 -12 0 -21 -2 -21 -4z"/>
</g>
</svg>
